<?xml version="1.0" encoding="UTF-8"?>
<!--Generator: Apple Native CoreSVG 232.5-->
<!DOCTYPE svg
PUBLIC "-//W3C//DTD SVG 1.1//EN"
       "http://www.w3.org/Graphics/SVG/1.1/DTD/svg11.dtd">
<svg version="1.1" xmlns="http://www.w3.org/2000/svg" xmlns:xlink="http://www.w3.org/1999/xlink" width="3300" height="2200">
 <g id="Notes">
  <rect height="2200" id="artboard" style="fill:white;opacity:1" width="3300" x="0" y="0"/>
  <line style="fill:none;stroke:black;opacity:1;stroke-width:0.5;" x1="263" x2="3036" y1="292" y2="292"/>
  <text style="stroke:none;fill:black;font-family:sans-serif;font-size:13;font-weight:bold;" transform="matrix(1 0 0 1 263 322)">Weight/Scale Variations</text>
  <text style="stroke:none;fill:black;font-family:sans-serif;font-size:13;text-anchor:middle;" transform="matrix(1 0 0 1 559.711 322)">Ultralight</text>
  <text style="stroke:none;fill:black;font-family:sans-serif;font-size:13;text-anchor:middle;" transform="matrix(1 0 0 1 856.422 322)">Thin</text>
  <text style="stroke:none;fill:black;font-family:sans-serif;font-size:13;text-anchor:middle;" transform="matrix(1 0 0 1 1153.13 322)">Light</text>
  <text style="stroke:none;fill:black;font-family:sans-serif;font-size:13;text-anchor:middle;" transform="matrix(1 0 0 1 1449.84 322)">Regular</text>
  <text style="stroke:none;fill:black;font-family:sans-serif;font-size:13;text-anchor:middle;" transform="matrix(1 0 0 1 1746.56 322)">Medium</text>
  <text style="stroke:none;fill:black;font-family:sans-serif;font-size:13;text-anchor:middle;" transform="matrix(1 0 0 1 2043.27 322)">Semibold</text>
  <text style="stroke:none;fill:black;font-family:sans-serif;font-size:13;text-anchor:middle;" transform="matrix(1 0 0 1 2339.98 322)">Bold</text>
  <text style="stroke:none;fill:black;font-family:sans-serif;font-size:13;text-anchor:middle;" transform="matrix(1 0 0 1 2636.69 322)">Heavy</text>
  <text style="stroke:none;fill:black;font-family:sans-serif;font-size:13;text-anchor:middle;" transform="matrix(1 0 0 1 2933.4 322)">Black</text>
  <line style="fill:none;stroke:black;opacity:1;stroke-width:0.5;" x1="263" x2="3036" y1="1903" y2="1903"/>
  <g transform="matrix(0.2 0 0 0.2 263 1933)">
   <path d="m46.2402 4.15039c21.5332 0 39.4531-17.8711 39.4531-39.4043s-17.9688-39.4043-39.502-39.4043c-21.4844 0-39.3555 17.8711-39.3555 39.4043s17.9199 39.4043 39.4043 39.4043Zm0-7.42188c-17.7246 0-31.8848-14.209-31.8848-31.9824s14.1113-31.9824 31.8359-31.9824c17.7734 0 32.0312 14.209 32.0312 31.9824s-14.209 31.9824-31.9824 31.9824Zm-17.9688-31.9824c0 2.14844 1.51367 3.61328 3.75977 3.61328h10.498v10.5957c0 2.19727 1.46484 3.71094 3.61328 3.71094 2.24609 0 3.71094-1.51367 3.71094-3.71094v-10.5957h10.5957c2.19727 0 3.71094-1.46484 3.71094-3.61328 0-2.19727-1.51367-3.71094-3.71094-3.71094h-10.5957v-10.5469c0-2.24609-1.46484-3.75977-3.71094-3.75977-2.14844 0-3.61328 1.51367-3.61328 3.75977v10.5469h-10.498c-2.24609 0-3.75977 1.51367-3.75977 3.71094Z"/>
  </g>
  <g transform="matrix(0.2 0 0 0.2 281.506 1933)">
   <path d="m58.5449 14.5508c27.2461 0 49.8047-22.6074 49.8047-49.8047 0-27.2461-22.6074-49.8047-49.8535-49.8047-27.1973 0-49.7559 22.5586-49.7559 49.8047 0 27.1973 22.6074 49.8047 49.8047 49.8047Zm0-8.30078c-23.0469 0-41.4551-18.457-41.4551-41.5039s18.3594-41.5039 41.4062-41.5039 41.5527 18.457 41.5527 41.5039-18.457 41.5039-41.5039 41.5039Zm-22.6562-41.5039c0 2.39258 1.66016 4.00391 4.15039 4.00391h14.3555v14.4043c0 2.44141 1.66016 4.15039 4.05273 4.15039 2.44141 0 4.15039-1.66016 4.15039-4.15039v-14.4043h14.4043c2.44141 0 4.15039-1.61133 4.15039-4.00391 0-2.44141-1.70898-4.15039-4.15039-4.15039h-14.4043v-14.3555c0-2.49023-1.70898-4.19922-4.15039-4.19922-2.39258 0-4.05273 1.70898-4.05273 4.19922v14.3555h-14.3555c-2.49023 0-4.15039 1.70898-4.15039 4.15039Z"/>
  </g>
  <g transform="matrix(0.2 0 0 0.2 304.924 1933)">
   <path d="m74.8535 28.3203c34.8145 0 63.623-28.8086 63.623-63.5742 0-34.8145-28.8574-63.623-63.6719-63.623-34.7656 0-63.5254 28.8086-63.5254 63.623 0 34.7656 28.8086 63.5742 63.5742 63.5742Zm0-9.08203c-30.1758 0-54.4434-24.3164-54.4434-54.4922 0-30.2246 24.2188-54.4922 54.3945-54.4922 30.2246 0 54.541 24.2676 54.541 54.4922 0 30.1758-24.2676 54.4922-54.4922 54.4922Zm-28.8574-54.4922c0 2.58789 1.85547 4.39453 4.58984 4.39453h19.7266v19.7754c0 2.68555 1.85547 4.58984 4.44336 4.58984 2.68555 0 4.54102-1.85547 4.54102-4.58984v-19.7754h19.7754c2.68555 0 4.58984-1.80664 4.58984-4.39453 0-2.73438-1.85547-4.58984-4.58984-4.58984h-19.7754v-19.7266c0-2.73438-1.85547-4.63867-4.54102-4.63867-2.58789 0-4.44336 1.9043-4.44336 4.63867v19.7266h-19.7266c-2.73438 0-4.58984 1.85547-4.58984 4.58984Z"/>
  </g>
  <text style="stroke:none;fill:black;font-family:sans-serif;font-size:13;font-weight:bold;" transform="matrix(1 0 0 1 263 1953)">Design Variations</text>
  <text style="stroke:none;fill:black;font-family:sans-serif;font-size:13;" transform="matrix(1 0 0 1 263 1971)">Symbols are supported in up to nine weights and three scales.</text>
  <text style="stroke:none;fill:black;font-family:sans-serif;font-size:13;" transform="matrix(1 0 0 1 263 1989)">For optimal layout with text and other symbols, vertically align</text>
  <text style="stroke:none;fill:black;font-family:sans-serif;font-size:13;" transform="matrix(1 0 0 1 263 2007)">symbols with the adjacent text.</text>
  <line style="fill:none;stroke:#00AEEF;stroke-width:0.5;opacity:1.0;" x1="776" x2="776" y1="1919" y2="1933"/>
  <g transform="matrix(0.2 0 0 0.2 776 1933)">
   <path d="m16.5527 0.78125c2.58789 0 3.85742-0.976562 4.78516-3.71094l6.29883-17.2363h28.8086l6.29883 17.2363c0.927734 2.73438 2.19727 3.71094 4.73633 3.71094 2.58789 0 4.24805-1.5625 4.24805-4.00391 0-0.830078-0.146484-1.61133-0.537109-2.63672l-22.9004-60.9863c-1.12305-2.97852-3.125-4.49219-6.25-4.49219-3.02734 0-5.07812 1.46484-6.15234 4.44336l-22.9004 61.084c-0.390625 1.02539-0.537109 1.80664-0.537109 2.63672 0 2.44141 1.5625 3.95508 4.10156 3.95508Zm13.4766-28.3691 11.8652-32.8613h0.244141l11.8652 32.8613Z"/>
  </g>
  <line style="fill:none;stroke:#00AEEF;stroke-width:0.5;opacity:1.0;" x1="792.836" x2="792.836" y1="1919" y2="1933"/>
  <text style="stroke:none;fill:black;font-family:sans-serif;font-size:13;font-weight:bold;" transform="matrix(1 0 0 1 776 1953)">Margins</text>
  <text style="stroke:none;fill:black;font-family:sans-serif;font-size:13;" transform="matrix(1 0 0 1 776 1971)">Leading and trailing margins on the left and right side of each symbol</text>
  <text style="stroke:none;fill:black;font-family:sans-serif;font-size:13;" transform="matrix(1 0 0 1 776 1989)">can be adjusted by modifying the x-location of the margin guidelines.</text>
  <text style="stroke:none;fill:black;font-family:sans-serif;font-size:13;" transform="matrix(1 0 0 1 776 2007)">Modifications are automatically applied proportionally to all</text>
  <text style="stroke:none;fill:black;font-family:sans-serif;font-size:13;" transform="matrix(1 0 0 1 776 2025)">scales and weights.</text>
  <g transform="matrix(0.2 0 0 0.2 1289 1933)">
   <path d="m14.209 9.32617 8.49609 8.54492c4.29688 4.3457 9.22852 4.05273 13.8672-1.07422l53.4668-58.9355-4.83398-4.88281-53.0762 58.3984c-1.75781 2.00195-3.41797 2.49023-5.76172 0.146484l-5.85938-5.81055c-2.34375-2.29492-1.80664-4.00391 0.195312-5.81055l57.373-54.0039-4.88281-4.83398-57.959 54.4434c-4.93164 4.58984-5.32227 9.47266-1.02539 13.8184Zm32.0801-90.9668c-2.09961 2.05078-2.24609 4.93164-1.07422 6.88477 1.17188 1.80664 3.4668 2.97852 6.68945 2.14844 7.32422-1.70898 14.9414-2.00195 22.0703 2.68555l-2.92969 7.27539c-1.70898 4.15039-0.830078 7.08008 1.85547 9.81445l11.4746 11.5723c2.44141 2.44141 4.49219 2.53906 7.32422 2.05078l5.32227-0.976562 3.32031 3.36914-0.195312 2.7832c-0.195312 2.49023 0.439453 4.39453 2.88086 6.78711l3.80859 3.71094c2.39258 2.39258 5.46875 2.53906 7.8125 0.195312l14.5508-14.5996c2.34375-2.34375 2.24609-5.32227-0.146484-7.71484l-3.85742-3.80859c-2.39258-2.39258-4.24805-3.17383-6.64062-2.97852l-2.88086 0.244141-3.22266-3.17383 1.2207-5.61523c0.634766-2.83203-0.146484-5.0293-3.07617-7.95898l-10.9863-10.9375c-16.6992-16.6016-38.8672-16.2109-53.3203-1.75781Zm7.4707 1.85547c12.1582-8.88672 28.6133-7.37305 39.7461 3.75977l12.1582 12.0605c1.17188 1.17188 1.36719 2.09961 1.02539 3.80859l-1.61133 7.42188 7.51953 7.42188 4.93164-0.292969c1.26953-0.0488281 1.66016 0.0488281 2.63672 1.02539l2.88086 2.88086-12.207 12.207-2.88086-2.88086c-0.976562-0.976562-1.12305-1.36719-1.07422-2.68555l0.341797-4.88281-7.4707-7.42188-7.61719 1.26953c-1.61133 0.341797-2.34375 0.195312-3.56445-0.976562l-10.0098-10.0098c-1.26953-1.17188-1.41602-2.00195-0.634766-3.85742l4.39453-10.4492c-7.8125-7.27539-17.9688-10.4004-28.125-7.42188-0.78125 0.195312-1.07422-0.439453-0.439453-0.976562Z"/>
  </g>
  <text style="stroke:none;fill:black;font-family:sans-serif;font-size:13;font-weight:bold;" transform="matrix(1 0 0 1 1289 1953)">Exporting</text>
  <text style="stroke:none;fill:black;font-family:sans-serif;font-size:13;" transform="matrix(1 0 0 1 1289 1971)">Symbols should be outlined when exporting to ensure the</text>
  <text style="stroke:none;fill:black;font-family:sans-serif;font-size:13;" transform="matrix(1 0 0 1 1289 1989)">design is preserved when submitting to Xcode.</text>
  <text id="template-version" style="stroke:none;fill:black;font-family:sans-serif;font-size:13;text-anchor:end;" transform="matrix(1 0 0 1 3036 1933)">Template v.2.0</text>
  <text style="stroke:none;fill:black;font-family:sans-serif;font-size:13;text-anchor:end;" transform="matrix(1 0 0 1 3036 1951)">Requires Xcode 12 or greater</text>
  <text id="descriptive-name" style="stroke:none;fill:black;font-family:sans-serif;font-size:13;text-anchor:end;" transform="matrix(1 0 0 1 3036 1969)">Generated from doc.text</text>
  <text style="stroke:none;fill:black;font-family:sans-serif;font-size:13;text-anchor:end;" transform="matrix(1 0 0 1 3036 1987)">Typeset at 100.0 points</text>
  <text style="stroke:none;fill:black;font-family:sans-serif;font-size:13;" transform="matrix(1 0 0 1 263 726)">Small</text>
  <text style="stroke:none;fill:black;font-family:sans-serif;font-size:13;" transform="matrix(1 0 0 1 263 1156)">Medium</text>
  <text style="stroke:none;fill:black;font-family:sans-serif;font-size:13;" transform="matrix(1 0 0 1 263 1586)">Large</text>
 </g>
 <g id="Guides">
  <g id="H-reference" style="fill:#27AAE1;stroke:none;" transform="matrix(1 0 0 1 339 696)">
   <path d="M0.993654 0L3.63775 0L29.3281-67.1323L30.0303-67.1323L30.0303-70.459L28.1226-70.459ZM11.6885-24.4799L46.9815-24.4799L46.2315-26.7285L12.4385-26.7285ZM55.1196 0L57.7637 0L30.6382-70.459L29.4326-70.459L29.4326-67.1323Z"/>
  </g>
  <line id="Baseline-S" style="fill:none;stroke:#27AAE1;opacity:1;stroke-width:0.5;" x1="263" x2="3036" y1="696" y2="696"/>
  <line id="Capline-S" style="fill:none;stroke:#27AAE1;opacity:1;stroke-width:0.5;" x1="263" x2="3036" y1="625.541" y2="625.541"/>
  <g id="H-reference" style="fill:#27AAE1;stroke:none;" transform="matrix(1 0 0 1 339 1126)">
   <path d="M0.993654 0L3.63775 0L29.3281-67.1323L30.0303-67.1323L30.0303-70.459L28.1226-70.459ZM11.6885-24.4799L46.9815-24.4799L46.2315-26.7285L12.4385-26.7285ZM55.1196 0L57.7637 0L30.6382-70.459L29.4326-70.459L29.4326-67.1323Z"/>
  </g>
  <line id="Baseline-M" style="fill:none;stroke:#27AAE1;opacity:1;stroke-width:0.5;" x1="263" x2="3036" y1="1126" y2="1126"/>
  <line id="Capline-M" style="fill:none;stroke:#27AAE1;opacity:1;stroke-width:0.5;" x1="263" x2="3036" y1="1055.54" y2="1055.54"/>
  <g id="H-reference" style="fill:#27AAE1;stroke:none;" transform="matrix(1 0 0 1 339 1556)">
   <path d="M0.993654 0L3.63775 0L29.3281-67.1323L30.0303-67.1323L30.0303-70.459L28.1226-70.459ZM11.6885-24.4799L46.9815-24.4799L46.2315-26.7285L12.4385-26.7285ZM55.1196 0L57.7637 0L30.6382-70.459L29.4326-70.459L29.4326-67.1323Z"/>
  </g>
  <line id="Baseline-L" style="fill:none;stroke:#27AAE1;opacity:1;stroke-width:0.5;" x1="263" x2="3036" y1="1556" y2="1556"/>
  <line id="Capline-L" style="fill:none;stroke:#27AAE1;opacity:1;stroke-width:0.5;" x1="263" x2="3036" y1="1485.54" y2="1485.54"/>
  <line id="left-margin" style="fill:none;stroke:#00AEEF;stroke-width:0.5;opacity:1.0;" x1="1396.32" x2="1396.32" y1="1030.79" y2="1150.12"/>
  <line id="right-margin" style="fill:none;stroke:#00AEEF;stroke-width:0.5;opacity:1.0;" x1="1503.37" x2="1503.37" y1="1030.79" y2="1150.12"/>
 </g>
 <g id="Symbols">
  <g id="Black-L" transform="matrix(1 0 0 1 2859.72 1556)">
   <path d="M93.6721-26.0201L53.282-26.0201C50.6741-26.0201 48.7619-24.13 48.7619-21.6817C48.7619-19.1542 50.6741-17.1849 53.282-17.1849L93.6721-17.1849C96.2008-17.1849 98.0922-19.1542 98.0922-21.6817C98.0922-24.13 96.2008-26.0201 93.6721-26.0201ZM93.6721-7.75991L53.282-7.75991C50.6741-7.75991 48.7619-5.78937 48.7619-3.26307C48.7619-0.814796 50.6741 1.07532 53.282 1.07532L93.6721 1.07532C96.2008 1.07532 98.0922-0.814796 98.0922-3.26307C98.0922-5.78937 96.2008-7.75991 93.6721-7.75991ZM39.7724 35.1919L107.573 35.1919C122.676 35.1919 131.282 26.5635 131.282 11.4202L131.282-45.4947C131.282-56.4325 129.502-62.133 122.48-69.1967L95.0577-96.806C88.1189-103.788 82.2923-105.61 71.6459-105.61L39.7724-105.61C24.6731-105.61 16.084-96.9813 16.084-81.838L16.084 11.4202C16.084 26.5843 24.6707 35.1919 39.7724 35.1919ZM42.6072 15.2108C37.9952 15.2108 36.065 13.0054 36.065 8.68947L36.065-79.1073C36.065-83.4172 37.9952-85.6286 42.628-85.6286L65.3696-85.6286L65.3696-58.1805C65.3696-45.4163 71.3053-39.4889 84.0612-39.4889L111.282-39.4889L111.282 8.68947C111.282 13.0054 109.35 15.2108 104.738 15.2108ZM85.352-55.1941C82.4934-55.1941 81.054-56.6336 81.054-59.491L81.054-84.703L110.356-55.1941Z"/>
  </g>
  <g id="Heavy-L" transform="matrix(1 0 0 1 2564.15 1556)">
   <path d="M93.353-26.15L51.1109-26.15C48.6051-26.15 46.7592-24.3399 46.7592-21.9894C46.7592-19.564 48.6051-17.6791 51.1109-17.6791L93.353-17.6791C95.784-17.6791 97.5997-19.564 97.5997-21.9894C97.5997-24.3399 95.784-26.15 93.353-26.15ZM93.353-7.00874L51.1109-7.00874C48.6051-7.00874 46.7592-5.11823 46.7592-2.69846C46.7592-0.347887 48.6051 1.4622 51.1109 1.4622L93.353 1.4622C95.784 1.4622 97.5997-0.347887 97.5997-2.69846C97.5997-5.11823 95.784-7.00874 93.353-7.00874ZM38.7107 34.4871L106.333 34.4871C120.891 34.4871 128.99 26.3523 128.99 11.7397L128.99-45.3758C128.99-55.5475 127.412-60.7009 120.916-67.2571L91.6098-96.8348C85.2347-103.276 79.8946-104.915 70.1455-104.915L38.7107-104.915C24.1696-104.915 16.084-96.78 16.084-82.1674L16.084 11.7397C16.084 26.3825 24.1584 34.4871 38.7107 34.4871ZM40.9859 16.9867C35.8791 16.9867 33.5844 14.4531 33.5844 9.61542L33.5844-80.0431C33.5844-84.8528 35.8791-87.4144 41.0161-87.4144L65.0967-87.4144L65.0967-57.7164C65.0967-46.1411 70.5576-40.7195 82.0937-40.7195L111.465-40.7195L111.465 9.61542C111.465 14.4531 109.165 16.9867 104.058 16.9867ZM83.332-54.8246C80.5274-54.8246 79.1717-56.1803 79.1717-58.9793L79.1717-86.27L110.321-54.8246Z"/>
  </g>
  <g id="Bold-L" transform="matrix(1 0 0 1 2268.83 1556)">
   <path d="M93.0281-26.207L48.511-26.207C46.1729-26.207 44.4413-24.5266 44.4413-22.3362C44.4413-20.0786 46.1729-18.331 48.511-18.331L93.0281-18.331C95.2989-18.331 96.9925-20.0786 96.9925-22.3362C96.9925-24.5266 95.2989-26.207 93.0281-26.207ZM93.0281-6.06405L48.511-6.06405C46.1729-6.06405 44.4413-4.30322 44.4413-2.05884C44.4413 0.131592 46.1729 1.812 48.511 1.812L93.0281 1.812C95.2989 1.812 96.9925 0.131592 96.9925-2.05884C96.9925-4.30322 95.2989-6.06405 93.0281-6.06405ZM37.3893 33.656L104.864 33.656C118.716 33.656 126.207 26.1134 126.207 12.1987L126.207-45.3714C126.207-54.5308 124.859-59.0079 119.054-64.8894L87.3674-96.9179C81.7138-102.661 76.9955-104.084 68.368-104.084L37.3893-104.084C23.577-104.084 16.084-96.5415 16.084-82.6268L16.084 12.1987C16.084 26.1514 23.5506 33.656 37.3893 33.656ZM39.025 19.2142C33.2738 19.2142 30.5257 16.2734 30.5257 10.7529L30.5257-81.181C30.5257-86.6353 33.2738-89.6423 39.063-89.6423L64.8182-89.6423L64.8182-57.2669C64.8182-47.1071 69.7025-42.3155 79.7696-42.3155L111.74-42.3155L111.74 10.7529C111.74 16.2734 108.979 19.2142 103.228 19.2142ZM80.9091-54.3711C78.1139-54.3711 76.8359-55.6492 76.8359-58.4311L76.8359-88.2959L110.394-54.3711Z"/>
  </g>
  <g id="Semibold-L" transform="matrix(1 0 0 1 1973.08 1556)">
   <path d="M92.8041-26.2464L46.7186-26.2464C44.4962-26.2464 42.8433-24.6553 42.8433-22.5753C42.8433-20.4334 44.4962-18.7804 46.7186-18.7804L92.8041-18.7804C94.9645-18.7804 96.574-20.4334 96.574-22.5753C96.574-24.6553 94.9645-26.2464 92.8041-26.2464ZM92.8041-5.41279L46.7186-5.41279C44.4962-5.41279 42.8433-3.74136 42.8433-1.61788C42.8433 0.462141 44.4962 2.05315 46.7186 2.05315L92.8041 2.05315C94.9645 2.05315 96.574 0.462141 96.574-1.61788C96.574-3.74136 94.9645-5.41279 92.8041-5.41279ZM36.4783 33.083L103.85 33.083C117.216 33.083 124.288 25.9487 124.288 12.5152L124.288-45.3683C124.288-53.8298 123.1-57.8408 117.77-63.2571L84.4427-96.9751C79.2865-102.236 74.9969-103.511 67.1426-103.511L36.4783-103.511C23.1685-103.511 16.084-96.377 16.084-82.9435L16.084 12.5152C16.084 25.9921 23.1315 33.083 36.4783 33.083ZM37.6732 20.7498C31.4776 20.7498 28.4171 17.5283 28.4171 11.5371L28.4171-81.9655C28.4171-87.8642 31.4776-91.1782 37.7165-91.1782L64.6263-91.1782L64.6263-56.957C64.6263-47.7731 69.113-43.4158 78.1674-43.4158L111.93-43.4158L111.93 11.5371C111.93 17.5283 108.851 20.7498 102.656 20.7498ZM79.2388-54.0585C76.4501-54.0585 75.2256-55.283 75.2256-58.0532L75.2256-89.6926L110.444-54.0585Z"/>
  </g>
  <g id="Medium-L" transform="matrix(1 0 0 1 1677.1 1556)">
   <path d="M92.6342-26.2762L45.3595-26.2762C43.2248-26.2762 41.6317-24.7529 41.6317-22.7566C41.6317-20.7024 43.2248-19.1212 45.3595-19.1212L92.6342-19.1212C94.711-19.1212 96.2566-20.7024 96.2566-22.7566C96.2566-24.7529 94.711-26.2762 92.6342-26.2762ZM92.6342-4.91898L45.3595-4.91898C43.2248-4.91898 41.6317-3.31534 41.6317-1.28353C41.6317 0.712778 43.2248 2.236 45.3595 2.236L92.6342 2.236C94.711 2.236 96.2566 0.712778 96.2566-1.28353C96.2566-3.31534 94.711-4.91898 92.6342-4.91898ZM35.7875 32.6485L103.082 32.6485C116.078 32.6485 122.833 25.8238 122.833 12.7552L122.833-45.366C122.833-53.2983 121.766-56.9558 116.797-62.0194L82.225-97.0185C77.4461-101.915 73.4815-103.077 66.2134-103.077L35.7875-103.077C22.8587-103.077 16.084-96.2524 16.084-83.1837L16.084 12.7552C16.084 25.8713 22.8138 32.6485 35.7875 32.6485ZM36.6482 21.9142C30.1158 21.9142 26.8183 18.4798 26.8183 12.1317L26.8183-82.5603C26.8183-88.796 30.1158-92.3427 36.6956-92.3427L64.4807-92.3427L64.4807-56.722C64.4807-48.2781 68.666-44.2501 76.9526-44.2501L112.074-44.2501L112.074 12.1317C112.074 18.4798 108.754 21.9142 102.222 21.9142ZM77.9722-53.8215C75.1886-53.8215 74.0046-55.0054 74.0046-57.7666L74.0046-90.7516L110.483-53.8215Z"/>
  </g>
  <g id="Regular-L" transform="matrix(1 0 0 1 1381.33 1556)">
   <path d="M92.4127-26.315L43.5868-26.315C41.5665-26.315 40.0513-24.8802 40.0513-22.9931C40.0513-21.0532 41.5665-19.5657 43.5868-19.5657L92.4127-19.5657C94.3802-19.5657 95.8427-21.0532 95.8427-22.9931C95.8427-24.8802 94.3802-26.315 92.4127-26.315ZM92.4127-4.27488L43.5868-4.27488C41.5665-4.27488 40.0513-2.75965 40.0513-0.847426C40.0513 1.0397 41.5665 2.4745 43.5868 2.4745L92.4127 2.4745C94.3802 2.4745 95.8427 1.0397 95.8427-0.847426C95.8427-2.75965 94.3802-4.27488 92.4127-4.27488ZM34.8866 32.0818L102.08 32.0818C114.595 32.0818 120.935 25.6609 120.935 13.0682L120.935-45.363C120.935-52.6051 120.026-55.8015 115.528-60.405L79.3325-97.0752C75.0455-101.495 71.5049-102.511 65.0015-102.511L34.8866-102.511C22.4546-102.511 16.084-96.0897 16.084-83.4969L16.084 13.0682C16.084 25.7137 22.3993 32.0818 34.8866 32.0818ZM35.3112 23.4329C28.3394 23.4329 24.7328 19.7209 24.7328 12.9073L24.7328-83.3361C24.7328-90.0114 28.3394-93.8617 35.364-93.8617L64.2908-93.8617L64.2908-56.4154C64.2908-48.9368 68.0829-45.3383 75.368-45.3383L112.262-45.3383L112.262 12.9073C112.262 19.7209 108.627 23.4329 101.655 23.4329ZM76.3203-53.5123C73.543-53.5123 72.4121-54.6433 72.4121-57.3928L72.4121-92.1329L110.533-53.5123Z"/>
  </g>
  <g id="Light-L" transform="matrix(1 0 0 1 1085.41 1556)">
   <path d="M92.6417-25.6852L42.3654-25.6852C40.7268-25.6852 39.4978-24.5367 39.4978-23.0122C39.4978-21.454 40.7268-20.2718 42.3654-20.2718L92.6417-20.2718C94.2466-20.2718 95.4419-21.454 95.4419-23.0122C95.4419-24.5367 94.2466-25.6852 92.6417-25.6852ZM92.6417-3.53056L42.3654-3.53056C40.7268-3.53056 39.4978-2.30161 39.4978-0.79017C39.4978 0.734331 40.7268 1.88286 42.3654 1.88286L92.6417 1.88286C94.2466 1.88286 95.4419 0.734331 95.4419-0.79017C95.4419-2.30161 94.2466-3.53056 92.6417-3.53056ZM33.9323 31.7764L101.488 31.7764C113.316 31.7764 119.37 25.6419 119.37 13.7934L119.37-46.2791C119.37-52.4142 118.499-55.1526 114.726-58.9927L76.5842-97.4378C72.9461-101.19 69.959-102.129 64.2953-102.129L33.9323-102.129C22.2447-102.129 16.084-95.9943 16.084-84.1458L16.084 13.7934C16.084 25.6755 22.1512 31.7764 33.9323 31.7764ZM34.2615 25.1506C26.6408 25.1506 22.7098 21.1523 22.7098 13.6326L22.7098-83.985C22.7098-91.271 26.6408-95.503 34.2952-95.503L64.4817-95.503L64.4817-56.9117C64.4817-50.0437 67.9493-46.9033 74.4901-46.9033L112.758-46.9033L112.758 13.6326C112.758 21.1523 108.78 25.1506 101.159 25.1506ZM75.1561-53.226C72.0162-53.226 70.7707-54.4715 70.7707-57.5646L70.7707-94.0796L111.334-53.226Z"/>
  </g>
  <g id="Thin-L" transform="matrix(1 0 0 1 789.73 1556)">
   <path d="M92.9446-24.8522L40.7499-24.8522C39.6161-24.8522 38.7658-24.0823 38.7658-23.0374C38.7658-21.9841 39.6161-21.2058 40.7499-21.2058L92.9446-21.2058C94.0699-21.2058 94.9118-21.9841 94.9118-23.0374C94.9118-24.0823 94.0699-24.8522 92.9446-24.8522ZM92.9446-2.54612L40.7499-2.54612C39.6161-2.54612 38.7658-1.6958 38.7658-0.714444C38.7658 0.330462 39.6161 1.10036 40.7499 1.10036L92.9446 1.10036C94.0699 1.10036 94.9118 0.330462 94.9118-0.714444C94.9118-1.6958 94.0699-2.54612 92.9446-2.54612ZM32.6702 31.3726L100.706 31.3726C111.625 31.3726 117.301 25.6166 117.301 14.7526L117.301-47.4907C117.301-52.1618 116.48-54.2944 113.666-57.1248L72.9494-97.9174C70.1695-100.786 67.9144-101.624 63.3614-101.624L32.6702-101.624C21.967-101.624 16.084-95.8681 16.084-85.0041L16.084 14.7526C16.084 25.6251 21.823 31.3726 32.6702 31.3726ZM32.8732 27.4224C24.3943 27.4224 20.0342 23.0454 20.0342 14.5918L20.0342-84.8432C20.0342-92.9369 24.3943-97.6738 32.8817-97.6738L64.7341-97.6738L64.7341-57.5679C64.7341-51.5077 67.7726-48.9731 73.3289-48.9731L113.414-48.9731L113.414 14.5918C113.414 23.0454 108.982 27.4224 100.503 27.4224ZM73.6163-52.8474C69.9969-52.8474 68.5999-54.2443 68.5999-57.7918L68.5999-96.6542L112.394-52.8474Z"/>
  </g>
  <g id="Ultralight-L" transform="matrix(1 0 0 1 493.549 1556)">
   <path d="M93.0998-24.4256L39.9224-24.4256C39.0472-24.4256 38.3909-23.8496 38.3909-23.0504C38.3909-22.2556 39.0472-21.6841 39.9224-21.6841L93.0998-21.6841C93.9794-21.6841 94.6403-22.2556 94.6403-23.0504C94.6403-23.8496 93.9794-24.4256 93.0998-24.4256ZM93.0998-2.0419L39.9224-2.0419C39.0472-2.0419 38.3909-1.38551 38.3909-0.675658C38.3909 0.123602 39.0472 0.699573 39.9224 0.699573L93.0998 0.699573C93.9794 0.699573 94.6403 0.123602 94.6403-0.675658C94.6403-1.38551 93.9794-2.0419 93.0998-2.0419ZM32.0238 31.1657L100.305 31.1657C110.759 31.1657 116.24 25.6037 116.24 15.2439L116.24-48.1113C116.24-52.0325 115.445-53.8548 113.123-56.1681L71.0876-98.163C68.7474-100.579 66.8672-101.365 62.883-101.365L32.0238-101.365C21.8248-101.365 16.084-95.8034 16.084-85.4436L16.084 15.2439C16.084 25.5992 21.655 31.1657 32.0238 31.1657ZM32.1621 28.5859C23.2436 28.5859 18.6637 24.015 18.6637 15.083L18.6637-85.2828C18.6637-93.7902 23.2436-98.7857 32.1576-98.7857L64.8634-98.7857L64.8634-57.9041C64.8634-52.2576 67.6821-50.0333 72.7342-50.0333L113.75-50.0333L113.75 15.083C113.75 24.015 109.085 28.5859 100.167 28.5859ZM72.8277-52.6534C68.9626-52.6534 67.4881-54.128 67.4881-57.9081L67.4881-97.973L112.937-52.6534Z"/>
  </g>
  <g id="Black-M" transform="matrix(1 0 0 1 2875.44 1126)">
   <path d="M72.8771-27.8976L42.9802-27.8976C40.9237-27.8976 39.4241-26.4032 39.4241-24.4716C39.4241-22.4774 40.9237-20.9205 42.9802-20.9205L72.8771-20.9205C74.871-20.9205 76.3651-22.4774 76.3651-24.4716C76.3651-26.4032 74.871-27.8976 72.8771-27.8976ZM72.8771-14.4924L42.9802-14.4924C40.9237-14.4924 39.4241-12.9357 39.4241-10.9412C39.4241-9.00963 40.9237-7.51528 42.9802-7.51528L72.8771-7.51528C74.871-7.51528 76.3651-9.00963 76.3651-10.9412C76.3651-12.9357 74.871-14.4924 72.8771-14.4924ZM31.5964 19.8932L84.3265 19.8932C96.4026 19.8932 103.467 12.823 103.467 0.735696L103.467-43.4086C103.467-52.3911 101.92-57.2156 96.1256-63.0208L76.2361-82.9598C70.4638-88.7428 65.6066-90.3014 56.701-90.3014L31.5964-90.3014C19.5195-90.3014 12.4609-83.2313 12.4609-71.1439L12.4609 0.735696C12.4609 12.8285 19.5201 19.8932 31.5964 19.8932ZM34.2608 2.55522C31.0249 2.55522 29.7989 1.08981 29.7989-1.90115L29.7989-68.5071C29.7989-71.4994 31.0249-72.9634 34.2662-72.9634L50.9049-72.9634L50.9049-53.4767C50.9049-42.6487 55.8677-37.6839 66.6977-37.6839L86.1238-37.6839L86.1238-1.90115C86.1238 1.08981 84.898 2.55522 81.6622 2.55522ZM67.7041-50.9757C65.3939-50.9757 64.1912-52.1784 64.1912-54.4888L64.1912-72.4757L85.636-50.9757Z"/>
  </g>
  <g id="Heavy-M" transform="matrix(1 0 0 1 2579.77 1126)">
   <path d="M72.5439-28.0827L40.9705-28.0827C38.9786-28.0827 37.5174-26.6402 37.5174-24.7706C37.5174-22.841 38.9786-21.3385 40.9705-21.3385L72.5439-21.3385C74.4758-21.3385 75.9206-22.841 75.9206-24.7706C75.9206-26.6402 74.4758-28.0827 72.5439-28.0827ZM72.5439-13.8267L40.9705-13.8267C38.9786-13.8267 37.5174-12.3219 37.5174-10.3946C37.5174-8.52503 38.9786-7.0825 40.9705-7.0825L72.5439-7.0825C74.4758-7.0825 75.9206-8.52503 75.9206-10.3946C75.9206-12.3219 74.4758-13.8267 72.5439-13.8267ZM30.6466 19.2324L83.1692 19.2324C94.776 19.2324 101.371 12.6184 101.371 0.981078L101.371-43.2079C101.371-51.5436 100.018-55.8755 94.6708-61.2551L73.119-82.9545C67.8379-88.2707 63.4052-89.6574 55.2993-89.6574L30.6466-89.6574C19.0467-89.6574 12.4609-83.0433 12.4609-71.406L12.4609 0.981078C12.4609 12.6348 19.0422 19.2324 30.6466 19.2324ZM32.7727 4.13281C29.113 4.13281 27.5605 2.37302 27.5605-1.06288L27.5605-69.3621C27.5605-72.7866 29.113-74.5578 32.7891-74.5578L50.6206-74.5578L50.6206-52.9773C50.6206-43.2551 55.1491-38.7425 64.8553-38.7425L86.2576-38.7425L86.2576-1.06288C86.2576 2.37302 84.7029 4.13281 81.0432 4.13281ZM65.8368-50.6409C63.6128-50.6409 62.5026-51.7512 62.5026-53.9728L62.5026-73.828L85.5278-50.6409Z"/>
  </g>
  <g id="Bold-M" transform="matrix(1 0 0 1 2284.23 1126)">
   <path d="M72.1713-28.2898L38.7224-28.2898C36.8028-28.2898 35.3844-26.9052 35.3844-25.1051C35.3844-23.2478 36.8028-21.8061 38.7224-21.8061L72.1713-21.8061C74.0337-21.8061 75.4234-23.2478 75.4234-25.1051C75.4234-26.9052 74.0337-28.2898 72.1713-28.2898ZM72.1713-13.0821L38.7224-13.0821C36.8028-13.0821 35.3844-11.6352 35.3844-9.78307C35.3844-7.98293 36.8028-6.59838 38.7224-6.59838L72.1713-6.59838C74.0337-6.59838 75.4234-7.98293 75.4234-9.78307C75.4234-11.6352 74.0337-13.0821 72.1713-13.0821ZM29.5842 18.4933L81.8747 18.4933C92.9564 18.4933 99.0265 12.3894 99.0265 1.25557L99.0265-42.9834C99.0265-50.5955 97.8895-54.3764 93.0433-59.2799L69.6322-82.9486C64.9005-87.7426 60.9427-88.9369 53.7314-88.9369L29.5842-88.9369C18.5178-88.9369 12.4609-82.8331 12.4609-71.6992L12.4609 1.25557C12.4609 12.418 18.5076 18.4933 29.5842 18.4933ZM31.108 5.89757C26.9743 5.89757 25.0566 3.80849 25.0566-0.125156L25.0566-70.3185C25.0566-74.2265 26.9743-76.3412 31.1366-76.3412L50.3025-76.3412L50.3025-52.4185C50.3025-43.9335 54.3452-39.9267 62.7944-39.9267L86.4073-39.9267L86.4073-0.125156C86.4073 3.80849 84.4846 5.89757 80.3509 5.89757ZM63.748-50.2664C61.6204-50.2664 60.6136-51.2732 60.6136-53.3957L60.6136-75.3407L85.4068-50.2664Z"/>
  </g>
  <g id="Semibold-M" transform="matrix(1 0 0 1 1988.33 1126)">
   <path d="M71.9144-28.4326L37.1725-28.4326C35.3027-28.4326 33.914-27.088 33.914-25.3357C33.914-23.5282 35.3027-22.1284 37.1725-22.1284L71.9144-22.1284C73.729-22.1284 75.0806-23.5282 75.0806-25.3357C75.0806-27.088 73.729-28.4326 71.9144-28.4326ZM71.9144-12.5688L37.1725-12.5688C35.3027-12.5688 33.914-11.1619 33.914-9.36149C33.914-7.6092 35.3027-6.26463 37.1725-6.26463L71.9144-6.26463C73.729-6.26463 75.0806-7.6092 75.0806-9.36149C75.0806-11.1619 73.729-12.5688 71.9144-12.5688ZM28.8517 17.9837L80.9823 17.9837C91.702 17.9837 97.41 12.2316 97.41 1.44481L97.41-42.8287C97.41-49.9419 96.4224-53.343 91.9213-57.9181L67.2284-82.9445C62.8755-87.3786 59.245-88.4403 52.6504-88.4403L28.8517-88.4403C18.1532-88.4403 12.4609-82.6881 12.4609-71.9014L12.4609 1.44481C12.4609 12.2686 18.139 17.9837 28.8517 17.9837ZM29.9604 7.11419C25.4999 7.11419 23.3305 4.79809 23.3305 0.521307L23.3305-70.9779C23.3305-75.2191 25.4999-77.5707 29.9974-77.5707L50.0832-77.5707L50.0832-52.0334C50.0832-44.4012 53.7911-40.743 61.3736-40.743L86.5106-40.743L86.5106 0.521307C86.5106 4.79809 84.3341 7.11419 79.8735 7.11419ZM62.308-50.0082C60.2469-50.0082 59.3113-50.9437 59.3113-52.9977L59.3113-76.3835L85.3233-50.0082Z"/>
  </g>
  <g id="Medium-M" transform="matrix(1 0 0 1 1692.23 1126)">
   <path d="M71.7196-28.5408L35.9974-28.5408C34.1654-28.5408 32.7991-27.2265 32.7991-25.5105C32.7991-23.7408 34.1654-22.3728 35.9974-22.3728L71.7196-22.3728C73.4979-22.3728 74.8207-23.7408 74.8207-25.5105C74.8207-27.2265 73.4979-28.5408 71.7196-28.5408ZM71.7196-12.1795L35.9974-12.1795C34.1654-12.1795 32.7991-10.8029 32.7991-9.04183C32.7991-7.32583 34.1654-6.01156 35.9974-6.01156L71.7196-6.01156C73.4979-6.01156 74.8207-7.32583 74.8207-9.04183C74.8207-10.8029 73.4979-12.1795 71.7196-12.1795ZM28.2963 17.5974L80.3056 17.5974C90.7509 17.5974 96.1843 12.1119 96.1843 1.5883L96.1843-42.7114C96.1843-49.4463 95.31-52.5594 91.0706-56.8856L65.4057-82.9413C61.34-87.1025 57.9578-88.0637 51.8308-88.0637L28.2963-88.0637C17.8768-88.0637 12.4609-82.5782 12.4609-72.0546L12.4609 1.5883C12.4609 12.1553 17.8596 17.5974 28.2963 17.5974ZM29.0902 8.03668C24.3819 8.03668 22.0216 5.54844 22.0216 1.01148L22.0216-71.4778C22.0216-75.9718 24.3819-78.503 29.1337-78.503L49.9169-78.503L49.9169-51.7413C49.9169-44.7558 53.3709-41.362 60.2962-41.362L86.5888-41.362L86.5888 1.01148C86.5888 5.54844 84.22 8.03668 79.5116 8.03668ZM61.2161-49.8124C59.2054-49.8124 58.3239-50.6939 58.3239-52.696L58.3239-77.1742L85.2601-49.8124Z"/>
  </g>
  <g id="Regular-M" transform="matrix(1 0 0 1 1396.32 1126)">
   <path d="M71.4655-28.682L34.4646-28.682C32.6818-28.682 31.3448-27.4072 31.3448-25.7386C31.3448-24.0182 32.6818-22.6917 34.4646-22.6917L71.4655-22.6917C73.1965-22.6917 74.4817-24.0182 74.4817-25.7386C74.4817-27.4072 73.1965-28.682 71.4655-28.682ZM71.4655-11.6718L34.4646-11.6718C32.6818-11.6718 31.3448-10.3348 31.3448-8.62489C31.3448-6.95622 32.6818-5.68148 34.4646-5.68148L71.4655-5.68148C73.1965-5.68148 74.4817-6.95622 74.4817-8.62489C74.4817-10.3348 73.1965-11.6718 71.4655-11.6718ZM27.5719 17.0934L79.4229 17.0934C89.5103 17.0934 94.5856 11.9558 94.5856 1.77545L94.5856-42.5583C94.5856-48.7999 93.859-51.5373 89.961-55.5389L63.0283-82.9373C59.3372-86.7424 56.2788-87.5725 50.7618-87.5725L27.5719-87.5725C17.5162-87.5725 12.4609-82.4348 12.4609-72.2545L12.4609 1.77545C12.4609 12.0075 17.4951 17.0934 27.5719 17.0934ZM27.9552 9.23993C22.9237 9.23993 20.3144 6.52717 20.3144 1.65084L20.3144-72.1299C20.3144-76.9535 22.9237-79.719 28.007-79.719L49.7-79.719L49.7-51.3604C49.7-45.2183 52.8228-42.1694 58.891-42.1694L86.6909-42.1694L86.6909 1.65084C86.6909 6.52717 84.0711 9.23993 79.0395 9.23993ZM59.7919-49.5571C57.8469-49.5571 57.036-50.368 57.036-52.3025L57.036-78.2056L85.1775-49.5571Z"/>
  </g>
  <g id="Light-M" transform="matrix(1 0 0 1 1100.31 1126)">
   <path d="M71.6708-28.1173L33.3695-28.1173C31.929-28.1173 30.8486-27.0993 30.8486-25.7557C30.8486-24.3775 31.929-23.3248 33.3695-23.3248L71.6708-23.3248C73.0767-23.3248 74.1224-24.3775 74.1224-25.7557C74.1224-27.0993 73.0767-28.1173 71.6708-28.1173ZM71.6708-11.0045L33.3695-11.0045C31.929-11.0045 30.8486-9.9241 30.8486-8.57356C30.8486-7.22999 31.929-6.21192 33.3695-6.21192L71.6708-6.21192C73.0767-6.21192 74.1224-7.22999 74.1224-8.57356C74.1224-9.9241 73.0767-11.0045 71.6708-11.0045ZM26.7163 16.8196L78.8925 16.8196C88.3638 16.8196 93.1825 11.9386 93.1825 2.42567L93.1825-43.3796C93.1825-48.6288 92.4902-50.9555 89.2423-54.2726L60.5643-83.2624C57.455-86.4686 54.8928-87.2303 50.1287-87.2303L26.7163-87.2303C17.3279-87.2303 12.4609-82.3493 12.4609-72.8363L12.4609 2.42567C12.4609 11.9733 17.2726 16.8196 26.7163 16.8196ZM27.0141 10.7799C21.4008 10.7799 18.5006 7.81049 18.5006 2.30106L18.5006-72.7117C18.5006-78.0828 21.4008-81.1906 27.0488-81.1906L49.8712-81.1906L49.8712-51.8052C49.8712-46.2107 52.703-43.5725 58.1039-43.5725L87.1358-43.5725L87.1358 2.30106C87.1358 7.81049 84.208 10.7799 78.5947 10.7799ZM58.7482-49.3004C56.4781-49.3004 55.5644-50.214 55.5644-52.4565L55.5644-79.9509L85.8962-49.3004Z"/>
  </g>
  <g id="Thin-M" transform="matrix(1 0 0 1 804.528 1126)">
   <path d="M71.9424-27.3705L31.9211-27.3705C30.9332-27.3705 30.1923-26.6919 30.1923-25.7783C30.1923-24.8527 30.9332-24.1621 31.9211-24.1621L71.9424-24.1621C72.9183-24.1621 73.6472-24.8527 73.6472-25.7783C73.6472-26.6919 72.9183-27.3705 71.9424-27.3705ZM71.9424-10.1219L31.9211-10.1219C30.9332-10.1219 30.1923-9.38097 30.1923-8.50567C30.1923-7.59208 30.9332-6.91346 31.9211-6.91346L71.9424-6.91346C72.9183-6.91346 73.6472-7.59208 73.6472-8.50567C73.6472-9.38097 72.9183-10.1219 71.9424-10.1219ZM25.5848 16.4575L78.1909 16.4575C86.8476 16.4575 91.3268 11.916 91.3268 3.28563L91.3268-44.4659C91.3268-48.4024 90.6797-50.186 88.2918-52.598L57.3055-83.6924C54.9657-86.1065 53.0597-86.7776 49.2913-86.7776L25.5848-86.7776C17.079-86.7776 12.4609-82.2361 12.4609-73.6057L12.4609 3.28563C12.4609 11.928 16.9784 16.4575 25.5848 16.4575ZM25.7695 12.8167C19.3867 12.8167 16.1018 9.50778 16.1018 3.16102L16.1018-73.4811C16.1018-79.5764 19.3867-83.1368 25.7815-83.1368L50.0975-83.1368L50.0975-52.3936C50.0975-47.5233 52.5446-45.4282 57.0629-45.4282L87.7242-45.4282L87.7242 3.16102C87.7242 9.50778 84.3891 12.8167 78.0063 12.8167ZM57.3677-48.9609C54.6676-48.9609 53.6182-50.0104 53.6182-52.6602L53.6182-82.2592L86.8467-48.9609Z"/>
  </g>
  <g id="Ultralight-M" transform="matrix(1 0 0 1 508.292 1126)">
   <path d="M72.0815-26.988L31.1793-26.988C30.4232-26.988 29.8561-26.4833 29.8561-25.7899C29.8561-25.0961 30.4232-24.591 31.1793-24.591L72.0815-24.591C72.8371-24.591 73.4038-25.0961 73.4038-25.7899C73.4038-26.4833 72.8371-26.988 72.0815-26.988ZM72.0815-9.66983L31.1793-9.66983C30.4232-9.66983 29.8561-9.10278 29.8561-8.47089C29.8561-7.77754 30.4232-7.27279 31.1793-7.27279L72.0815-7.27279C72.8371-7.27279 73.4038-7.77754 73.4038-8.47089C73.4038-9.10278 72.8371-9.66983 72.0815-9.66983ZM25.0052 16.2721L77.8316 16.2721C86.071 16.2721 90.3763 11.9044 90.3763 3.7261L90.3763-45.0223C90.3763-48.2865 89.7524-49.7919 87.805-51.7402L55.6364-83.9126C53.6906-85.9211 52.1208-86.5458 48.8624-86.5458L25.0052-86.5458C16.9515-86.5458 12.4609-82.1782 12.4609-73.9999L12.4609 3.7261C12.4609 11.9048 16.8277 16.2721 25.0052 16.2721ZM25.1319 13.8599C18.355 13.8599 14.8731 10.3771 14.8731 3.60149L14.8731-73.8752C14.8731-80.3415 18.355-84.1336 25.1324-84.1336L50.2134-84.1336L50.2134-52.695C50.2134-48.1956 52.4635-46.3787 56.5297-46.3787L88.0256-46.3787L88.0256 3.60149C88.0256 10.3771 84.4818 13.8599 77.7049 13.8599ZM56.6606-48.7871C53.7403-48.7871 52.6213-49.906 52.6213-52.7645L52.6213-83.4415L87.3335-48.7871Z"/>
  </g>
  <g id="Black-S" transform="matrix(1 0 0 1 2887.7 696)">
   <path d="M57.2266-29.3945L34.2285-29.3945C32.6172-29.3945 31.4453-28.2227 31.4453-26.709C31.4453-25.1465 32.6172-23.9258 34.2285-23.9258L57.2266-23.9258C58.7891-23.9258 59.9609-25.1465 59.9609-26.709C59.9609-28.2227 58.7891-29.3945 57.2266-29.3945ZM57.2266-19.1406L34.2285-19.1406C32.6172-19.1406 31.4453-17.9199 31.4453-16.3574C31.4453-14.8438 32.6172-13.6719 34.2285-13.6719L57.2266-13.6719C58.7891-13.6719 59.9609-14.8438 59.9609-16.3574C59.9609-17.9199 58.7891-19.1406 57.2266-19.1406ZM25 8.1543L66.4062 8.1543C75.9766 8.1543 81.6406 2.49023 81.6406-7.08008L81.6406-41.748C81.6406-48.9258 80.3711-52.832 75.7324-57.4707L60.5469-72.6562C55.9082-77.2949 52.002-78.5645 44.8242-78.5645L25-78.5645C15.4297-78.5645 9.76562-72.9004 9.76562-63.3301L9.76562-7.08008C9.76562 2.49023 15.4297 8.1543 25 8.1543ZM27.2461-6.00586C24.8047-6.00586 23.9258-7.08008 23.9258-9.32617L23.9258-61.084C23.9258-63.3301 24.8047-64.4043 27.2461-64.4043L39.9902-64.4043L39.9902-49.707C39.9902-40.918 43.9941-36.9141 52.7832-36.9141L67.4805-36.9141L67.4805-9.32617C67.4805-7.08008 66.6016-6.00586 64.1602-6.00586ZM53.5645-47.6562C51.709-47.6562 50.7324-48.6328 50.7324-50.4883L50.7324-64.1113L67.1875-47.6562Z"/>
  </g>
  <g id="Heavy-S" transform="matrix(1 0 0 1 2591.79 696)">
   <path d="M56.9154-29.625L32.6497-29.625C31.0499-29.625 29.878-28.4647 29.878-26.9625C29.878-25.4115 31.0499-24.2024 32.6497-24.2024L56.9154-24.2024C58.4664-24.2024 59.6267-25.4115 59.6267-26.9625C59.6267-28.4647 58.4664-29.625 56.9154-29.625ZM56.9154-18.6566L32.6497-18.6566C31.0499-18.6566 29.878-17.4474 29.878-15.8964C29.878-14.3943 31.0499-13.2339 32.6497-13.2339L56.9154-13.2339C58.4664-13.2339 59.6267-14.3943 59.6267-15.8964C59.6267-17.4474 58.4664-18.6566 56.9154-18.6566ZM24.297 7.62417L65.4843 7.62417C74.7319 7.62417 80.0272 2.31737 80.0272-6.95331L80.0272-41.4715C80.0272-48.2228 78.919-51.7603 74.58-56.1223L58.1959-72.6102C53.9029-76.9261 50.2963-78.0574 43.7063-78.0574L24.297-78.0574C15.0494-78.0574 9.76562-72.7506 9.76562-63.4799L9.76562-6.95331C9.76562 2.32889 15.0494 7.62417 24.297 7.62417ZM26.0936-4.85341C23.3641-4.85341 22.2432-6.1466 22.2432-8.69233L22.2432-61.7409C22.2432-64.2866 23.3641-65.5798 26.1052-65.5798L39.7252-65.5798L39.7252-49.223C39.7252-41.3098 43.3949-37.6401 51.3081-37.6401L67.5381-37.6401L67.5381-8.69233C67.5381-6.1466 66.4172-4.85341 63.6877-4.85341ZM52.1008-47.4027C50.3606-47.4027 49.4763-48.2871 49.4763-50.0273L49.4763-65.0448L67.0031-47.4027Z"/>
  </g>
  <g id="Bold-S" transform="matrix(1 0 0 1 2295.98 696)">
   <path d="M56.5674-29.8828L30.8838-29.8828C29.2969-29.8828 28.125-28.7354 28.125-27.2461C28.125-25.708 29.2969-24.5117 30.8838-24.5117L56.5674-24.5117C58.1055-24.5117 59.2529-25.708 59.2529-27.2461C59.2529-28.7354 58.1055-29.8828 56.5674-29.8828ZM56.5674-18.1152L30.8838-18.1152C29.2969-18.1152 28.125-16.9189 28.125-15.3809C28.125-13.8916 29.2969-12.7441 30.8838-12.7441L56.5674-12.7441C58.1055-12.7441 59.2529-13.8916 59.2529-15.3809C59.2529-16.9189 58.1055-18.1152 56.5674-18.1152ZM23.5107 7.03125L64.4531 7.03125C73.3398 7.03125 78.2227 2.12402 78.2227-6.81152L78.2227-41.1621C78.2227-47.4365 77.2949-50.5615 73.291-54.6143L55.5664-72.5586C51.6602-76.5137 48.3887-77.4902 42.4561-77.4902L23.5107-77.4902C14.624-77.4902 9.76562-72.583 9.76562-63.6475L9.76562-6.81152C9.76562 2.14844 14.624 7.03125 23.5107 7.03125ZM24.8047-3.56445C21.7529-3.56445 20.3613-5.10254 20.3613-7.9834L20.3613-62.4756C20.3613-65.3564 21.7529-66.8945 24.8291-66.8945L39.4287-66.8945L39.4287-48.6816C39.4287-41.748 42.7246-38.4521 49.6582-38.4521L67.6025-38.4521L67.6025-7.9834C67.6025-5.10254 66.2109-3.56445 63.1592-3.56445ZM50.4639-47.1191C48.8525-47.1191 48.0713-47.9004 48.0713-49.5117L48.0713-66.0889L66.7969-47.1191Z"/>
  </g>
  <g id="Semibold-S" transform="matrix(1 0 0 1 1999.89 696)">
   <path d="M56.3274-30.0605L29.6663-30.0605C28.0883-30.0605 26.9164-28.922 26.9164-27.4416C26.9164-25.9124 28.0883-24.725 29.6663-24.725L56.3274-24.725C57.8566-24.725 58.9952-25.9124 58.9952-27.4416C58.9952-28.922 57.8566-30.0605 56.3274-30.0605ZM56.3274-17.742L29.6663-17.742C28.0883-17.742 26.9164-16.5546 26.9164-15.0254C26.9164-13.545 28.0883-12.4064 29.6663-12.4064L56.3274-12.4064C57.8566-12.4064 58.9952-13.545 58.9952-15.0254C58.9952-16.5546 57.8566-17.742 56.3274-17.742ZM22.9687 6.62246L63.7422 6.62246C72.3801 6.62246 76.9785 1.99072 76.9785-6.71377L76.9785-40.9488C76.9785-46.8944 76.1752-49.7351 72.4023-53.5745L53.7535-72.523C50.1139-76.2293 47.0734-77.0992 41.594-77.0992L22.9687-77.0992C14.3308-77.0992 9.76562-72.4675 9.76562-63.763L9.76562-6.71377C9.76562 2.02402 14.3308 6.62246 22.9687 6.62246ZM23.916-2.67578C20.6421-2.67578 19.0639-4.38271 19.0639-7.49463L19.0639-62.9821C19.0639-66.094 20.6421-67.801 23.9493-67.801L39.2243-67.801L39.2243-48.3084C39.2243-42.0502 42.2625-39.012 48.5207-39.012L67.647-39.012L67.647-7.49463C67.647-4.38271 66.0687-2.67578 62.7948-2.67578ZM49.3353-46.9236C47.8128-46.9236 47.1026-47.6338 47.1026-49.1562L47.1026-66.8087L66.6547-46.9236Z"/>
  </g>
  <g id="Medium-S" transform="matrix(1 0 0 1 1703.66 696)">
   <path d="M56.1455-30.1953L28.7432-30.1953C27.1719-30.1953 26-29.0635 26-27.5898C26-26.0674 27.1719-24.8867 28.7432-24.8867L56.1455-24.8867C57.668-24.8867 58.7998-26.0674 58.7998-27.5898C58.7998-29.0635 57.668-30.1953 56.1455-30.1953ZM56.1455-17.459L28.7432-17.459C27.1719-17.459 26-16.2783 26-14.7559C26-13.2822 27.1719-12.1504 28.7432-12.1504L56.1455-12.1504C57.668-12.1504 58.7998-13.2822 58.7998-14.7559C58.7998-16.2783 57.668-17.459 56.1455-17.459ZM22.5576 6.3125L63.2031 6.3125C71.6523 6.3125 76.0352 1.88965 76.0352-6.63965L76.0352-40.7871C76.0352-46.4834 75.3262-49.1084 71.7285-52.7861L52.3789-72.4961C48.9414-76.0137 46.0762-76.8027 40.9404-76.8027L22.5576-76.8027C14.1084-76.8027 9.76562-72.3799 9.76562-63.8506L9.76562-6.63965C9.76562 1.92969 14.1084 6.3125 22.5576 6.3125ZM23.2422-2.00195C19.7998-2.00195 18.0801-3.83691 18.0801-7.12402L18.0801-63.3662C18.0801-66.6533 19.7998-68.4883 23.2822-68.4883L39.0693-68.4883L39.0693-48.0254C39.0693-42.2793 41.9121-39.4365 47.6582-39.4365L67.6807-39.4365L67.6807-7.12402C67.6807-3.83691 65.9609-2.00195 62.5186-2.00195ZM48.4795-46.7754C47.0244-46.7754 46.3682-47.4316 46.3682-48.8867L46.3682-67.3545L66.5469-46.7754Z"/>
  </g>
  <g id="Regular-S" transform="matrix(1 0 0 1 1407.56 696)">
   <path d="M55.9082-30.3711L27.5391-30.3711C25.9766-30.3711 24.8047-29.248 24.8047-27.7832C24.8047-26.2695 25.9766-25.0977 27.5391-25.0977L55.9082-25.0977C57.4219-25.0977 58.5449-26.2695 58.5449-27.7832C58.5449-29.248 57.4219-30.3711 55.9082-30.3711ZM55.9082-17.0898L27.5391-17.0898C25.9766-17.0898 24.8047-15.918 24.8047-14.4043C24.8047-12.9395 25.9766-11.8164 27.5391-11.8164L55.9082-11.8164C57.4219-11.8164 58.5449-12.9395 58.5449-14.4043C58.5449-15.918 57.4219-17.0898 55.9082-17.0898ZM22.0215 5.9082L62.5 5.9082C70.7031 5.9082 74.8047 1.75781 74.8047-6.54297L74.8047-40.5762C74.8047-45.9473 74.2188-48.291 70.8496-51.7578L50.5859-72.4609C47.4121-75.7324 44.7754-76.416 40.0879-76.416L22.0215-76.416C13.8184-76.416 9.76562-72.2656 9.76562-63.9648L9.76562-6.54297C9.76562 1.80664 13.8184 5.9082 22.0215 5.9082ZM22.3633-1.12305C18.7012-1.12305 16.7969-3.125 16.7969-6.64062L16.7969-63.8672C16.7969-67.3828 18.7012-69.3848 22.4121-69.3848L38.8672-69.3848L38.8672-47.6562C38.8672-42.5781 41.4551-39.9902 46.5332-39.9902L67.7246-39.9902L67.7246-6.64062C67.7246-3.125 65.8203-1.12305 62.1582-1.12305ZM47.3633-46.582C45.9961-46.582 45.4102-47.168 45.4102-48.5352L45.4102-68.0664L66.4062-46.582Z"/>
  </g>
  <g id="Light-S" transform="matrix(1 0 0 1 1111.47 696)">
   <path d="M56.0898-29.8716L26.5703-29.8716C25.3106-29.8716 24.3657-28.9756 24.3657-27.7983C24.3657-26.5874 25.3106-25.6577 26.5703-25.6577L56.0898-25.6577C57.3159-25.6577 58.2271-26.5874 58.2271-27.7983C58.2271-28.9756 57.3159-29.8716 56.0898-29.8716ZM56.0898-16.4995L26.5703-16.4995C25.3106-16.4995 24.3657-15.5547 24.3657-14.3589C24.3657-13.1816 25.3106-12.2856 26.5703-12.2856L56.0898-12.2856C57.3159-12.2856 58.2271-13.1816 58.2271-14.3589C58.2271-15.5547 57.3159-16.4995 56.0898-16.4995ZM21.2647 5.66602L62.0308 5.66602C69.689 5.66602 73.5635 1.74268 73.5635-5.96778L73.5635-41.3027C73.5635-45.7959 73.0078-47.7764 70.2139-50.6377L48.4063-72.7485C45.7471-75.4902 43.5493-76.1133 39.5278-76.1133L21.2647-76.1133C13.6519-76.1133 9.76562-72.1899 9.76562-64.4795L9.76562-5.96778C9.76562 1.77637 13.6216 5.66602 21.2647 5.66602ZM21.5308 0.239247C17.354 0.239247 15.1924-1.98976 15.1924-6.06543L15.1924-64.3818C15.1924-68.3818 17.354-70.6865 21.5645-70.6865L39.0186-70.6865L39.0186-48.0498C39.0186-43.456 41.3491-41.2314 45.8369-41.2314L68.1182-41.2314L68.1182-6.06543C68.1182-1.98976 65.9414 0.239247 61.7647 0.239247ZM46.4399-46.355C44.7852-46.355 44.1084-47.0317 44.1084-48.6714L44.1084-69.6103L67.042-46.355Z"/>
  </g>
  <g id="Thin-S" transform="matrix(1 0 0 1 815.578 696)">
   <path d="M56.3301-29.2109L25.2891-29.2109C24.4297-29.2109 23.7852-28.6152 23.7852-27.8184C23.7852-27.0078 24.4297-26.3984 25.2891-26.3984L56.3301-26.3984C57.1758-26.3984 57.8066-27.0078 57.8066-27.8184C57.8066-28.6152 57.1758-29.2109 56.3301-29.2109ZM56.3301-15.7188L25.2891-15.7188C24.4297-15.7188 23.7852-15.0742 23.7852-14.2988C23.7852-13.5019 24.4297-12.9062 25.2891-12.9062L56.3301-12.9062C57.1758-12.9062 57.8066-13.5019 57.8066-14.2988C57.8066-15.0742 57.1758-15.7188 56.3301-15.7188ZM20.2637 5.34571L61.4102 5.34571C68.3477 5.34571 71.9219 1.72266 71.9219-5.20704L71.9219-42.2637C71.9219-45.5957 71.4063-47.0957 69.3731-49.1563L45.5235-73.1289C43.545-75.1699 41.9278-75.7129 38.7871-75.7129L20.2637-75.7129C13.4316-75.7129 9.76562-72.0898 9.76562-65.1601L9.76562-5.20704C9.76562 1.73633 13.3613 5.34571 20.2637 5.34571ZM20.4297 2.04099C15.5723 2.04099 13.0703-0.488302 13.0703-5.3047L13.0703-65.0625C13.0703-69.7031 15.5723-72.4082 20.4434-72.4082L39.2187-72.4082L39.2187-48.5703C39.2187-44.6172 41.209-42.873 44.916-42.873L68.6387-42.873L68.6387-5.3047C68.6387-0.488302 66.1016 2.04099 61.2441 2.04099ZM45.2188-46.0547C43.1836-46.0547 42.3867-46.8516 42.3867-48.8516L42.3867-71.6523L67.8828-46.0547Z"/>
  </g>
  <g id="Ultralight-S" transform="matrix(1 0 0 1 519.288 696)">
   <path d="M56.4531-28.8726L24.6328-28.8726C23.9785-28.8726 23.4878-28.4307 23.4878-27.8286C23.4878-27.2231 23.9785-26.7778 24.6328-26.7778L56.4531-26.7778C57.104-26.7778 57.5913-27.2231 57.5913-27.8286C57.5913-28.4307 57.104-28.8726 56.4531-28.8726ZM56.4531-15.3189L24.6328-15.3189C23.9785-15.3189 23.4878-14.8281 23.4878-14.2681C23.4878-13.666 23.9785-13.2241 24.6328-13.2241L56.4531-13.2241C57.104-13.2241 57.5913-13.666 57.5913-14.2681C57.5913-14.8281 57.104-15.3189 56.4531-15.3189ZM19.751 5.18165L61.0923 5.18165C67.6607 5.18165 71.0811 1.7124 71.0811-4.8174L71.0811-42.7558C71.0811-45.4932 70.586-46.7471 68.9424-48.3975L44.0469-73.3237C42.417-75.0059 41.0972-75.5078 38.4077-75.5078L19.751-75.5078C13.3189-75.5078 9.76562-72.0386 9.76562-65.5088L9.76562-4.8174C9.76562 1.71582 13.228 5.18165 19.751 5.18165ZM19.8657 2.96384C14.6597 2.96384 11.9834 0.280735 11.9834-4.91505L11.9834-65.4111C11.9834-70.3799 14.6597-73.29 19.8692-73.29L39.3213-73.29L39.3213-48.8369C39.3213-45.2119 41.1372-43.7138 44.4444-43.7138L68.9053-43.7138L68.9053-4.91505C68.9053 0.280735 66.1836 2.96384 60.9775 2.96384ZM44.5933-45.9009C42.3633-45.9009 41.5049-46.7593 41.5049-48.9438L41.5049-72.6982L68.3135-45.9009Z"/>
  </g>
 </g>
</svg>
